<svg width="20" height="13" viewBox="0 0 20 13" xmlns="http://www.w3.org/2000/svg">
  <path fill="currentColor" fill-rule="evenodd" clip-rule="evenodd" d="M17 1H3C1.89543 1 1 1.89543 1 3V10C1 11.1046 1.89543 12 3 12H17C18.1046 12 19 11.1046 19 10V3C19 1.89543 18.1046 1 17 1ZM3 0C1.34315 0 0 1.34315 0 3V10C0 11.6569 1.34315 13 3 13H17C18.6569 13 20 11.6569 20 10V3C20 1.34315 18.6569 0 17 0H3Z" />
  <path fill="currentColor" d="M7.75439 7.34229C7.71566 7.87777 7.51742 8.29932 7.15967 8.60693C6.8042 8.91455 6.3348 9.06836 5.75146 9.06836C5.11344 9.06836 4.611 8.85417 4.24414 8.42578C3.87956 7.99512 3.69727 7.40495 3.69727 6.65527V6.35107C3.69727 5.87256 3.78158 5.45101 3.9502 5.08643C4.11882 4.72184 4.35921 4.44271 4.67139 4.24902C4.98584 4.05306 5.35042 3.95508 5.76514 3.95508C6.33936 3.95508 6.80192 4.10889 7.15283 4.4165C7.50374 4.72412 7.70654 5.15592 7.76123 5.71191H6.73584C6.71077 5.39062 6.62077 5.1582 6.46582 5.01465C6.31315 4.86882 6.07959 4.7959 5.76514 4.7959C5.42334 4.7959 5.16699 4.91895 4.99609 5.16504C4.82747 5.40885 4.74089 5.78825 4.73633 6.30322V6.6792C4.73633 7.21696 4.81722 7.61003 4.979 7.8584C5.14307 8.10677 5.40055 8.23096 5.75146 8.23096C6.0682 8.23096 6.30404 8.15918 6.45898 8.01562C6.61621 7.86979 6.70622 7.64535 6.729 7.34229H7.75439ZM11.0083 7.69434C11.0083 7.50065 10.9399 7.35254 10.8032 7.25C10.6665 7.14518 10.4204 7.03581 10.0649 6.92188C9.70947 6.80566 9.42806 6.69173 9.2207 6.58008C8.6556 6.27474 8.37305 5.86344 8.37305 5.34619C8.37305 5.07731 8.44824 4.83805 8.59863 4.62842C8.7513 4.4165 8.96891 4.2513 9.25146 4.13281C9.5363 4.01432 9.85531 3.95508 10.2085 3.95508C10.564 3.95508 10.8807 4.02002 11.1587 4.1499C11.4367 4.27751 11.652 4.45866 11.8047 4.69336C11.9596 4.92806 12.0371 5.19466 12.0371 5.49316H11.0117C11.0117 5.2653 10.9399 5.0887 10.7964 4.96338C10.6528 4.83577 10.4512 4.77197 10.1914 4.77197C9.94076 4.77197 9.74593 4.82552 9.60693 4.93262C9.46794 5.03743 9.39844 5.17643 9.39844 5.34961C9.39844 5.51139 9.47933 5.64697 9.64111 5.75635C9.80518 5.86572 10.0456 5.96826 10.3623 6.06396C10.9456 6.23942 11.3706 6.45703 11.6372 6.7168C11.9038 6.97656 12.0371 7.30013 12.0371 7.6875C12.0371 8.11816 11.8742 8.45654 11.5483 8.70264C11.2225 8.94645 10.7839 9.06836 10.2324 9.06836C9.84961 9.06836 9.50098 8.99886 9.18652 8.85986C8.87207 8.71859 8.63167 8.52604 8.46533 8.28223C8.30127 8.03841 8.21924 7.75586 8.21924 7.43457H9.24805C9.24805 7.98372 9.57617 8.2583 10.2324 8.2583C10.4762 8.2583 10.6665 8.20931 10.8032 8.11133C10.9399 8.01107 11.0083 7.87207 11.0083 7.69434ZM15.3149 7.69434C15.3149 7.50065 15.2466 7.35254 15.1099 7.25C14.9731 7.14518 14.7271 7.03581 14.3716 6.92188C14.0161 6.80566 13.7347 6.69173 13.5273 6.58008C12.9622 6.27474 12.6797 5.86344 12.6797 5.34619C12.6797 5.07731 12.7549 4.83805 12.9053 4.62842C13.0579 4.4165 13.2756 4.2513 13.5581 4.13281C13.8429 4.01432 14.1619 3.95508 14.5151 3.95508C14.8706 3.95508 15.1873 4.02002 15.4653 4.1499C15.7433 4.27751 15.9587 4.45866 16.1113 4.69336C16.2663 4.92806 16.3438 5.19466 16.3438 5.49316H15.3184C15.3184 5.2653 15.2466 5.0887 15.103 4.96338C14.9595 4.83577 14.7578 4.77197 14.498 4.77197C14.2474 4.77197 14.0526 4.82552 13.9136 4.93262C13.7746 5.03743 13.7051 5.17643 13.7051 5.34961C13.7051 5.51139 13.786 5.64697 13.9478 5.75635C14.1118 5.86572 14.3522 5.96826 14.6689 6.06396C15.2523 6.23942 15.6772 6.45703 15.9438 6.7168C16.2104 6.97656 16.3438 7.30013 16.3438 7.6875C16.3438 8.11816 16.1808 8.45654 15.855 8.70264C15.5291 8.94645 15.0905 9.06836 14.5391 9.06836C14.1562 9.06836 13.8076 8.99886 13.4932 8.85986C13.1787 8.71859 12.9383 8.52604 12.772 8.28223C12.6079 8.03841 12.5259 7.75586 12.5259 7.43457H13.5547C13.5547 7.98372 13.8828 8.2583 14.5391 8.2583C14.7829 8.2583 14.9731 8.20931 15.1099 8.11133C15.2466 8.01107 15.3149 7.87207 15.3149 7.69434Z" />
</svg>