<svg width="24" height="24" viewBox="0 0 24 24" fill="none" xmlns="http://www.w3.org/2000/svg">
  <path fill="currentColor" fill-rule="evenodd" clip-rule="evenodd" d="M7.50001 4.87499C7.50001 5.17336 7.38148 5.4595 7.1705 5.67048C6.95952 5.88146 6.67338 5.99999 6.37501 5.99999C6.07664 5.99999 5.79049 5.88146 5.57951 5.67048C5.36853 5.4595 5.25001 5.17336 5.25001 4.87499C5.25001 4.57662 5.36853 4.29047 5.57951 4.07949C5.79049 3.86851 6.07664 3.74999 6.37501 3.74999C6.67338 3.74999 6.95952 3.86851 7.1705 4.07949C7.38148 4.29047 7.50001 4.57662 7.50001 4.87499V4.87499ZM7.50001 8.05799C8.25062 7.79261 8.88326 7.27041 9.28609 6.5837C9.68893 5.89699 9.83603 5.08997 9.7014 4.30529C9.56677 3.52061 9.15908 2.80878 8.55037 2.29562C7.94167 1.78246 7.17116 1.50101 6.37501 1.50101C5.57886 1.50101 4.80834 1.78246 4.19964 2.29562C3.59094 2.80878 3.18324 3.52061 3.04861 4.30529C2.91398 5.08997 3.06108 5.89699 3.46392 6.5837C3.86676 7.27041 4.49939 7.79261 5.25001 8.05799V9.37499C5.25001 10.2701 5.60559 11.1285 6.23852 11.7615C6.87146 12.3944 7.7299 12.75 8.62501 12.75H10.875V15.942C10.124 16.2074 9.49095 16.7298 9.08783 17.4168C8.68471 18.1038 8.53745 18.9112 8.67209 19.6963C8.80673 20.4814 9.21458 21.1936 9.82357 21.707C10.4326 22.2204 11.2035 22.5021 12 22.5021C12.7966 22.5021 13.5675 22.2204 14.1764 21.707C14.7854 21.1936 15.1933 20.4814 15.3279 19.6963C15.4626 18.9112 15.3153 18.1038 14.9122 17.4168C14.5091 16.7298 13.876 16.2074 13.125 15.942V12.75H15.375C16.2701 12.75 17.1286 12.3944 17.7615 11.7615C18.3944 11.1285 18.75 10.2701 18.75 9.37499V8.05799C19.5006 7.79261 20.1333 7.27041 20.5361 6.5837C20.9389 5.89699 21.086 5.08997 20.9514 4.30529C20.8168 3.52061 20.4091 2.80878 19.8004 2.29562C19.1917 1.78246 18.4212 1.50101 17.625 1.50101C16.8289 1.50101 16.0583 1.78246 15.4496 2.29562C14.8409 2.80878 14.4332 3.52061 14.2986 4.30529C14.164 5.08997 14.3111 5.89699 14.7139 6.5837C15.1168 7.27041 15.7494 7.79261 16.5 8.05799V9.37499C16.5 9.67336 16.3815 9.9595 16.1705 10.1705C15.9595 10.3815 15.6734 10.5 15.375 10.5H8.62501C8.32664 10.5 8.04049 10.3815 7.82951 10.1705C7.61853 9.9595 7.50001 9.67336 7.50001 9.37499V8.05799ZM13.125 19.125C13.125 19.4234 13.0065 19.7095 12.7955 19.9205C12.5845 20.1315 12.2984 20.25 12 20.25C11.7016 20.25 11.4155 20.1315 11.2045 19.9205C10.9935 19.7095 10.875 19.4234 10.875 19.125C10.875 18.8266 10.9935 18.5405 11.2045 18.3295C11.4155 18.1185 11.7016 18 12 18C12.2984 18 12.5845 18.1185 12.7955 18.3295C13.0065 18.5405 13.125 18.8266 13.125 19.125ZM17.625 5.99999C17.9234 5.99999 18.2095 5.88146 18.4205 5.67048C18.6315 5.4595 18.75 5.17336 18.75 4.87499C18.75 4.57662 18.6315 4.29047 18.4205 4.07949C18.2095 3.86851 17.9234 3.74999 17.625 3.74999C17.3266 3.74999 17.0405 3.86851 16.8295 4.07949C16.6185 4.29047 16.5 4.57662 16.5 4.87499C16.5 5.17336 16.6185 5.4595 16.8295 5.67048C17.0405 5.88146 17.3266 5.99999 17.625 5.99999Z" />
</svg>