<svg width="24" height="22" viewBox="0 0 24 22" fill="none" xmlns="http://www.w3.org/2000/svg">
  <path fill="currentColor" d="M7.67969 0C7.06869 0 6.502 0.136781 6 0.425781C4.43113 1.33157 3.83397 3.53891 4.15039 6.28711C1.6127 7.38719 0 9.00703 0 10.8184C0 12.6297 1.6127 14.2495 4.15039 15.3496C3.83413 18.0977 4.43113 20.3051 6 21.2109C6.501 21.4999 7.06769 21.6367 7.67969 21.6367C8.98231 21.6367 10.4878 20.9829 12 19.8613C13.5123 20.9829 15.0196 21.6367 16.3223 21.6367C16.9333 21.6367 17.5 21.4999 18.002 21.2109C19.5708 20.3052 20.168 18.0978 19.8516 15.3496C22.3883 14.2495 24 12.6293 24 10.8184C24 9.00703 22.3873 7.38719 19.8496 6.28711C20.1659 3.53901 19.5689 1.33157 18 0.425781C17.499 0.135781 16.9323 0 16.3203 0C15.0177 0 13.5122 0.65377 12 1.77539C10.4878 0.65377 8.98186 0 7.67969 0ZM7.67969 1.75C8.46132 1.75 9.49496 2.16561 10.6172 2.93555C9.95737 3.55823 9.31115 4.26629 8.68945 5.05469C7.68108 5.19928 6.73035 5.41005 5.84961 5.67383C5.84488 5.61275 5.83368 5.54866 5.83008 5.48828C5.72308 3.70828 6.114 2.38141 6.875 1.94141C7.1 1.81141 7.36269 1.75 7.67969 1.75ZM16.3203 1.75C16.6363 1.75 16.9 1.81141 17.125 1.94141C17.886 2.38041 18.2769 3.70828 18.1699 5.48828C18.1663 5.54866 18.1551 5.61275 18.1504 5.67383C17.2691 5.40988 16.3177 5.19929 15.3086 5.05469C14.6869 4.2664 14.0426 3.55816 13.3828 2.93555C14.505 2.16574 15.5391 1.75 16.3203 1.75ZM12 4.04688C12.2711 4.29361 12.5403 4.55439 12.8125 4.83984C12.5427 4.83078 12.2744 4.81836 12 4.81836C11.7263 4.81836 11.4586 4.83082 11.1895 4.83984C11.4614 4.55469 11.7292 4.29338 12 4.04688ZM12 6.56836C12.8287 6.56836 13.6141 6.61468 14.3594 6.69531C14.8139 7.31306 15.2618 7.96617 15.6816 8.69336C16.0841 9.39039 16.4399 10.1038 16.7539 10.8184C16.4399 11.5333 16.0843 12.2479 15.6816 12.9453C15.2631 13.6704 14.8163 14.3193 14.3633 14.9355C13.5917 15.02 12.8002 15.0684 12 15.0684C11.1713 15.0684 10.3859 15.022 9.64062 14.9414C9.18614 14.3237 8.73823 13.6725 8.31836 12.9453C7.91568 12.2479 7.56019 11.5333 7.24609 10.8184C7.55997 10.1038 7.91593 9.39039 8.31836 8.69336C8.73708 7.96827 9.18361 7.31741 9.63672 6.70117C10.4083 6.61675 11.1998 6.56836 12 6.56836ZM16.7461 7.10938C17.1428 7.20516 17.5243 7.30857 17.8828 7.42383C17.8016 7.79088 17.7022 8.16497 17.5898 8.54297C17.4612 8.3015 17.3364 8.05926 17.1973 7.81836C17.0541 7.57056 16.8952 7.34792 16.7461 7.10938ZM7.25195 7.11133C7.10331 7.34914 6.9454 7.57135 6.80273 7.81836C6.66367 8.0593 6.5388 8.30147 6.41016 8.54297C6.29751 8.16419 6.19655 7.78965 6.11523 7.42188C6.48037 7.30651 6.86083 7.20435 7.25195 7.11133ZM4.46875 8.06445C4.67945 8.95407 4.97173 9.87628 5.34766 10.8164C4.97253 11.7543 4.68147 12.6748 4.4707 13.5625C2.72923 12.7216 1.75 11.6747 1.75 10.8184C1.75 9.93936 2.70187 8.93762 4.29688 8.14062C4.35132 8.11339 4.41312 8.09105 4.46875 8.06445ZM19.5293 8.07422C21.2708 8.91516 22.25 9.96199 22.25 10.8184C22.25 11.6974 21.2981 12.6991 19.7031 13.4961C19.6487 13.5233 19.5869 13.5457 19.5312 13.5723C19.3204 12.6821 19.0305 11.7591 18.6543 10.8184C19.029 9.88127 19.3187 8.96116 19.5293 8.07422ZM12 8.81836C10.895 8.81836 10 9.71336 10 10.8184C10 11.9234 10.895 12.8184 12 12.8184C13.105 12.8184 14 11.9234 14 10.8184C14 9.71336 13.105 8.81836 12 8.81836ZM6.41016 13.0938C6.53888 13.3353 6.66553 13.5774 6.80469 13.8184C6.94766 14.066 7.10492 14.289 7.25391 14.5273C6.85716 14.4316 6.47575 14.3282 6.11719 14.2129C6.19848 13.8456 6.29767 13.472 6.41016 13.0938ZM17.5898 13.0957C17.7024 13.4741 17.8035 13.8474 17.8848 14.2148C17.5196 14.3302 17.1392 14.4324 16.748 14.5254C16.8967 14.2876 17.0546 14.0654 17.1973 13.8184C17.336 13.5779 17.4614 13.3367 17.5898 13.0957ZM5.84961 15.9629C6.7309 16.2268 7.68233 16.4374 8.69141 16.582C9.31329 17.3707 9.95709 18.0803 10.6172 18.7031C9.49504 19.4728 8.46127 19.8887 7.67969 19.8887C7.36369 19.8887 7.1 19.8253 6.875 19.6953C6.114 19.2563 5.72308 17.9304 5.83008 16.1504C5.83374 16.0894 5.84479 16.0246 5.84961 15.9629ZM18.1504 15.9629C18.1552 16.0246 18.1663 16.0894 18.1699 16.1504C18.2769 17.9304 17.886 19.2553 17.125 19.6953C16.9 19.8253 16.6373 19.8887 16.3203 19.8887C15.5387 19.8887 14.505 19.473 13.3828 18.7031C14.043 18.0802 14.6885 17.3708 15.3105 16.582C16.3189 16.4374 17.2697 16.2267 18.1504 15.9629ZM11.1875 16.7969C11.4573 16.8059 11.7256 16.8184 12 16.8184C12.2744 16.8184 12.5427 16.8059 12.8125 16.7969C12.5403 17.0823 12.2711 17.3431 12 17.5898C11.7289 17.3431 11.4597 17.0823 11.1875 16.7969Z" />
</svg>