<svg width="24" height="24" viewBox="0 0 24 24" fill="none" xmlns="http://www.w3.org/2000/svg">
  <path fill="currentColor" d="M21.825 1.2619C21.4889 2.06784 21.0585 2.83115 20.5429 3.5359C19.4173 2.40559 18.0782 1.51032 16.6035 0.902145C15.1288 0.29397 13.5479 -0.014978 11.9528 -0.00673632C10.3576 0.00150538 8.78001 0.326772 7.31169 0.950153C5.84336 1.57353 4.51361 2.48259 3.39974 3.62447C2.28587 4.76635 1.41011 6.11827 0.823384 7.60162C0.236656 9.08497 -0.049337 10.6702 -0.0179665 12.265C0.0134039 13.8599 0.361512 15.4326 1.00612 16.8918C1.65072 18.3509 2.57897 19.6673 3.73688 20.7645L4.18163 21.1571C5.87883 22.5872 7.93856 23.5199 10.1329 23.8521C12.3273 24.1842 14.5708 23.9028 16.6152 23.0391C18.6596 22.1753 20.4252 20.7629 21.7167 18.9579C23.0082 17.153 23.7752 15.026 23.9329 12.8123C24.261 9.74852 23.3614 5.87102 21.8254 1.26227L21.825 1.2619ZM5.44875 20.8343C5.32068 20.9925 5.14856 21.1092 4.95415 21.1696C4.75974 21.23 4.55178 21.2314 4.3566 21.1735C4.16141 21.1157 3.98776 21.0013 3.85761 20.8448C3.72747 20.6882 3.64669 20.4966 3.62548 20.2941C3.60427 20.0917 3.6436 19.8875 3.73848 19.7073C3.83336 19.5272 3.97953 19.3793 4.1585 19.2823C4.33747 19.1853 4.54119 19.1435 4.7439 19.1623C4.9466 19.1811 5.13917 19.2596 5.29725 19.3879C5.50899 19.5597 5.64388 19.8085 5.67228 20.0797C5.70069 20.3509 5.62029 20.6223 5.44875 20.8343V20.8343ZM21.7755 17.2305C18.8055 21.1868 12.4643 19.8518 8.3985 20.0438C8.3985 20.0438 7.67775 20.0861 6.95213 20.205C6.95213 20.205 7.22588 20.0888 7.57575 19.9564C10.431 18.9626 11.7806 18.7714 13.515 17.8789C16.7805 16.2188 20.0108 12.5831 20.682 8.8039C19.4396 12.4395 15.6671 15.5659 12.2333 16.8356C9.87975 17.703 5.628 18.5479 5.628 18.5479L5.45663 18.456C2.56388 17.0498 2.47463 10.7846 7.7355 8.76415C10.0391 7.8769 12.243 8.36402 14.7308 7.7704C17.3873 7.13927 20.4608 5.14915 21.7114 2.5519C23.1101 6.7069 24.7954 13.2101 21.7736 17.2331L21.7755 17.2305Z" />
</svg>