<svg width="24" height="24" viewBox="0 0 24 24" fill="none" xmlns="http://www.w3.org/2000/svg">
  <path fill="currentColor" fill-rule="evenodd" clip-rule="evenodd" d="M12 0.375C12.21 0.374864 12.4159 0.433521 12.5943 0.54433C12.7727 0.65514 12.9165 0.813678 13.0095 1.002L15.8325 6.7245L22.1475 7.6425C22.3552 7.67266 22.5503 7.76033 22.7108 7.89558C22.8713 8.03082 22.9907 8.20827 23.0556 8.40785C23.1206 8.60743 23.1284 8.8212 23.0781 9.02498C23.0279 9.22876 22.9217 9.41443 22.7715 9.561L18.2025 14.016L19.281 20.304C19.3166 20.5109 19.2935 20.7236 19.2145 20.9181C19.1355 21.1126 19.0036 21.2811 18.8338 21.4045C18.664 21.528 18.4631 21.6015 18.2537 21.6166C18.0443 21.6318 17.8348 21.5881 17.649 21.4905L12 18.5205L6.351 21.4905C6.16528 21.588 5.956 21.6317 5.74679 21.6165C5.53757 21.6014 5.33676 21.528 5.16703 21.4048C4.99729 21.2815 4.86539 21.1133 4.78622 20.919C4.70706 20.7248 4.68377 20.5123 4.719 20.3055L5.799 14.0145L1.227 9.561C1.07635 9.41448 0.969751 9.2287 0.91928 9.0247C0.868809 8.82071 0.876485 8.60665 0.941439 8.40679C1.00639 8.20693 1.12603 8.02926 1.28679 7.89392C1.44754 7.75857 1.643 7.67095 1.851 7.641L8.166 6.7245L10.9905 1.002C11.0835 0.813678 11.2273 0.65514 11.4057 0.54433C11.5841 0.433521 11.79 0.374864 12 0.375V0.375ZM12 4.0425L9.9225 8.25C9.84183 8.41335 9.72268 8.55467 9.57532 8.66179C9.42795 8.76892 9.25678 8.83865 9.0765 8.865L4.431 9.54L7.791 12.816C7.92173 12.9433 8.01954 13.1005 8.07598 13.274C8.13243 13.4475 8.14582 13.6322 8.115 13.812L7.323 18.438L11.4765 16.254C11.6379 16.1691 11.8176 16.1248 12 16.1248C12.1824 16.1248 12.3621 16.1691 12.5235 16.254L16.6785 18.438L15.8835 13.812C15.8527 13.6322 15.8661 13.4475 15.9225 13.274C15.979 13.1005 16.0768 12.9433 16.2075 12.816L19.5675 9.5415L14.9235 8.8665C14.7432 8.84015 14.5721 8.77042 14.4247 8.66329C14.2773 8.55617 14.1582 8.41485 14.0775 8.2515L12 4.041V4.0425Z" />
</svg>