<svg width="24" height="24" viewBox="0 0 24 24" fill="none" xmlns="http://www.w3.org/2000/svg">
  <path fill="currentColor" fill-rule="evenodd" clip-rule="evenodd" d="M2.51851 11.898C3.13651 10.9665 4.38151 9.273 6.06751 7.8225C7.76251 6.363 9.79051 5.25 12 5.25C14.2095 5.25 16.236 6.363 17.9325 7.8225C19.6185 9.273 20.8635 10.9665 21.4815 11.898C21.5024 11.9279 21.5135 11.9635 21.5135 12C21.5135 12.0365 21.5024 12.0721 21.4815 12.102C20.8635 13.0335 19.6185 14.727 17.9325 16.1775C16.2375 17.637 14.2095 18.75 12 18.75C9.79051 18.75 7.76401 17.637 6.06751 16.1775C4.38001 14.727 3.13501 13.035 2.51851 12.102C2.49767 12.0721 2.4865 12.0365 2.4865 12C2.4865 11.9635 2.49767 11.9279 2.51851 11.898ZM12 3C9.02851 3 6.49501 4.488 4.60051 6.117C2.69551 7.7535 1.32001 9.6345 0.645013 10.65C0.378465 11.0492 0.236206 11.5185 0.236206 11.9985C0.236206 12.4785 0.378465 12.9478 0.645013 13.347C1.32001 14.364 2.69551 16.245 4.60051 17.883C6.49351 19.512 9.02851 21 12 21C14.9715 21 17.505 19.512 19.3995 17.883C21.3045 16.2465 22.68 14.3655 23.355 13.3485C23.6216 12.9493 23.7638 12.48 23.7638 12C23.7638 11.52 23.6216 11.0507 23.355 10.6515C22.68 9.6345 21.3045 7.7535 19.3995 6.117C17.5065 4.488 14.9715 3 12 3ZM12 15C12.7957 15 13.5587 14.6839 14.1213 14.1213C14.6839 13.5587 15 12.7956 15 12C15 11.2044 14.6839 10.4413 14.1213 9.87868C13.5587 9.31607 12.7957 9 12 9C11.2044 9 10.4413 9.31607 9.87869 9.87868C9.31608 10.4413 9.00001 11.2044 9.00001 12C9.00001 12.7956 9.31608 13.5587 9.87869 14.1213C10.4413 14.6839 11.2044 15 12 15V15Z" />
</svg>